<svg width="403" height="42" viewBox="0 0 403 42" fill="none" xmlns="http://www.w3.org/2000/svg">
<rect x="0.000114441" width="61.1765" height="32.1176" rx="3.05882" fill="white"/>
<circle cx="16.5256" cy="16.0588" r="11.2125" fill="black"/>
<g clip-path="url(#clip0_16_4)">
<path d="M110.939 9.33311H115.783V32.3972H110.939V9.33311Z" fill="white"/>
<path d="M125.601 40.1509C124.028 39.5413 122.777 38.6303 121.846 37.4178C120.915 36.2053 120.325 34.7371 120.089 33.0199H124.979C125.156 34.2914 125.772 35.2942 126.821 36.0217C127.869 36.7493 129.305 37.1097 131.107 37.1097C133.034 37.1097 134.528 36.6116 135.597 35.6219C136.665 34.6323 137.196 33.2297 137.196 31.4207V28.3992C136.632 29.2578 135.734 29.9526 134.509 30.49C133.276 31.0209 131.907 31.2896 130.399 31.2896C128.177 31.2896 126.25 30.8243 124.625 29.887C122.993 28.9563 121.741 27.6455 120.869 25.9545C119.998 24.2636 119.558 22.3432 119.558 20.1803C119.558 18.0174 119.998 16.0119 120.869 14.334C121.741 12.6627 122.986 11.3518 124.605 10.4015C126.218 9.45113 128.105 8.97923 130.268 8.97923C131.716 8.97923 133.067 9.26761 134.312 9.84438C135.557 10.4211 136.521 11.188 137.202 12.1318V9.33315H142.046V30.975C142.046 33.0462 141.6 34.8486 140.715 36.3757C139.824 37.9028 138.566 39.0629 136.94 39.8625C135.308 40.6621 133.368 41.0619 131.12 41.0619C129.016 41.0619 127.181 40.7604 125.608 40.1509H125.601ZM134.443 26.2429C135.42 25.6662 136.173 24.8534 136.711 23.7982C137.248 22.743 137.51 21.537 137.51 20.1738C137.51 18.0699 136.927 16.3789 135.754 15.1074C134.581 13.8359 133.008 13.1936 131.022 13.1936C129.717 13.1936 128.577 13.4754 127.6 14.0391C126.624 14.6027 125.87 15.4154 125.333 16.4838C124.802 17.5521 124.533 18.7777 124.533 20.1738C124.533 22.2776 125.116 23.9621 126.29 25.2205C127.463 26.4789 129.036 27.1081 131.022 27.1081C132.326 27.1081 133.466 26.8197 134.443 26.2429Z" fill="white"/>
<path d="M146.162 3.8147e-06H151.005V13.246C151.831 11.9155 152.906 10.8668 154.23 10.1131C155.547 9.35936 157.022 8.97922 158.654 8.97922C160.286 8.97922 161.728 9.32004 162.986 10.0017C164.245 10.6833 165.221 11.6468 165.916 12.8921C166.611 14.1374 166.958 15.5727 166.958 17.2047V32.4038H162.161V18.273C162.161 16.8246 161.721 15.6383 160.85 14.7207C159.978 13.8031 158.811 13.3443 157.363 13.3443C156.059 13.3443 154.931 13.6982 153.988 14.4126C153.037 15.1205 152.303 16.156 151.785 17.4996C151.268 18.8498 151.005 20.4425 151.005 22.2776V32.4104H146.162V3.8147e-06Z" fill="white"/>
<path d="M174.306 30.8832C172.942 29.638 172.261 27.8159 172.261 25.4171V13.4164H168.171V9.32657H172.261V2.44469H177.104V9.33313H182.702V13.4229H177.104V25.0238C177.104 26.1511 177.399 27.0163 177.996 27.6258C178.585 28.2354 179.385 28.5369 180.394 28.5369C180.807 28.5369 181.214 28.4975 181.614 28.4254C182.013 28.3533 182.374 28.2681 182.702 28.1829V32.4038C181.843 32.6398 180.906 32.7577 179.903 32.7577C177.53 32.7577 175.669 32.1351 174.306 30.8898V30.8832Z" fill="white"/>
<path d="M189.079 31.7091C187.611 31.0144 186.457 30.0444 185.612 28.7991C184.766 27.5538 184.314 26.1512 184.255 24.5782H189.007C189.066 25.6465 189.577 26.5772 190.54 27.3768C191.504 28.1764 192.697 28.5762 194.119 28.5762C195.39 28.5762 196.419 28.3075 197.206 27.7766C197.992 27.2457 198.386 26.5772 198.386 25.7776C198.386 25.037 198.143 24.4537 197.652 24.0211C197.16 23.5885 196.459 23.2739 195.541 23.0642L191.72 22.1728C189.767 21.7271 188.201 20.993 187.034 19.9706C185.861 18.9481 185.277 17.4472 185.277 15.4613C185.277 14.2488 185.625 13.1477 186.319 12.1711C187.014 11.1946 187.997 10.4146 189.275 9.83785C190.547 9.26108 192.015 8.97269 193.673 8.97269C195.331 8.97269 196.773 9.26108 198.097 9.83785C199.415 10.4146 200.496 11.247 201.342 12.3284C202.187 13.4099 202.698 14.6748 202.875 16.1299H198.124C198.006 15.1533 197.521 14.3733 196.682 13.7966C195.836 13.2198 194.84 12.9314 193.68 12.9314C192.611 12.9314 191.753 13.1608 191.104 13.6196C190.455 14.0784 190.127 14.6945 190.127 15.4613C190.127 16.0512 190.363 16.5624 190.835 16.995C191.307 17.4276 191.976 17.7291 192.834 17.906L196.655 18.7515C198.785 19.2234 200.431 19.9575 201.591 20.9537C202.744 21.95 203.321 23.5099 203.321 25.64C203.321 26.9705 202.934 28.183 202.167 29.2644C201.394 30.3459 200.313 31.1979 198.923 31.8205C197.534 32.4432 195.928 32.7512 194.125 32.7512C192.231 32.7512 190.547 32.4039 189.079 31.7091Z" fill="white"/>
<path d="M225.402 31.7943C224.13 31.1585 223.331 30.2672 222.688 29.5724V32.3973H217.845V3.8147e-06H222.688V12.2629C223.396 11.2863 224.392 10.4932 225.664 9.8837C226.935 9.27416 228.286 8.97267 229.708 8.97267C231.956 8.97267 233.909 9.47734 235.554 10.4801C237.199 11.4895 238.458 12.8855 239.329 14.6814C240.201 16.4772 240.64 18.5221 240.64 20.8357C240.64 23.1493 240.201 25.2074 239.329 27.0098C238.458 28.8187 237.186 30.2279 235.528 31.2306C233.87 32.24 231.917 32.7381 229.662 32.7381C228.089 32.7381 226.667 32.4169 225.395 31.7812L225.402 31.7943ZM232.513 27.5734C233.522 26.9377 234.302 26.0332 234.866 24.86C235.43 23.6868 235.711 22.3497 235.711 20.8357C235.711 19.3217 235.43 17.9912 234.866 16.8377C234.302 15.6841 233.516 14.7862 232.513 14.1505C231.504 13.5147 230.337 13.1936 229 13.1936C227.663 13.1936 226.542 13.5147 225.533 14.1505C224.523 14.7862 223.737 15.6841 223.18 16.8377C222.616 17.9912 222.334 19.3283 222.334 20.8357C222.334 22.3432 222.616 23.7261 223.18 24.8796C223.744 26.0332 224.53 26.9311 225.533 27.5669C226.542 28.2026 227.696 28.5238 229 28.5238C230.304 28.5238 231.504 28.2026 232.513 27.5669V27.5734Z" fill="white"/>
<path d="M240.312 9.33311H245.248L251.782 27.4161L249.737 33.5049L240.319 9.33311H240.312ZM262.577 9.33311L253.159 33.9506C252.3 36.1987 251.212 37.9486 249.895 39.1939C248.577 40.4392 246.788 41.0619 244.54 41.0619C244.035 41.0619 243.524 41.016 243.006 40.9308C242.488 40.8456 242.023 40.7407 241.61 40.6227V36.4477C241.964 36.5657 242.344 36.664 242.744 36.7361C243.144 36.8082 243.609 36.8475 244.147 36.8475C245.005 36.8475 245.759 36.6968 246.414 36.4018C247.063 36.1069 247.647 35.6416 248.145 34.9993C248.649 34.3635 249.121 33.4066 249.567 32.1351L257.655 9.33967H262.59L262.577 9.33311Z" fill="white"/>
<path d="M274.827 0.353931H284.822C287.843 0.353931 290.583 0.970024 293.041 2.19565C295.499 3.42784 297.452 5.2499 298.907 7.66183C300.355 10.0738 301.083 12.9707 301.083 16.3461C301.083 19.7215 300.355 22.6643 298.907 25.0763C297.458 27.4882 295.499 29.3103 293.041 30.5425C290.583 31.7746 287.843 32.3842 284.822 32.3842H274.827V0.353931ZM290.137 26.6427C291.841 25.8562 293.211 24.6044 294.247 22.8872C295.282 21.17 295.8 18.994 295.8 16.3527C295.8 13.7113 295.282 11.5812 294.247 9.86404C293.211 8.14684 291.841 6.895 290.137 6.1085C288.433 5.32199 286.559 4.92874 284.514 4.92874H279.978V27.8159H284.514C286.559 27.8159 288.433 27.4227 290.137 26.6362V26.6427Z" fill="white"/>
<path d="M309.354 26.5313C310.566 27.9208 312.211 28.6221 314.289 28.6221C315.738 28.6221 316.976 28.2944 317.999 27.6455C319.021 26.9967 319.664 26.0922 319.932 24.9321H324.684C324.415 26.5641 323.799 27.9667 322.842 29.153C321.879 30.3393 320.647 31.2372 319.152 31.8402C317.658 32.4432 315.987 32.7512 314.152 32.7512C311.812 32.7512 309.78 32.2007 308.063 31.1061C306.345 30.0116 305.035 28.5565 304.13 26.7541C303.226 24.9452 302.773 22.9789 302.773 20.8423C302.773 18.7056 303.199 16.7394 304.065 14.9304C304.923 13.1215 306.195 11.6795 307.886 10.5981C309.577 9.51667 311.589 8.97923 313.929 8.97923C316.268 8.97923 318.182 9.49046 319.841 10.5129C321.499 11.5354 322.751 12.8921 323.596 14.5765C324.442 16.2675 324.848 18.0895 324.815 20.0427C324.815 20.6063 324.789 21.2552 324.73 21.9958H305.579V18.1747H319.618C319.532 17.1392 319.257 16.215 318.798 15.3958C318.34 14.583 317.697 13.9473 316.865 13.4819C316.033 13.0232 315.056 12.7938 313.935 12.7938C312.605 12.7938 311.451 13.1149 310.494 13.7507C309.531 14.3864 308.797 15.304 308.292 16.5034C307.787 17.7028 307.538 19.1185 307.538 20.744C307.538 23.2018 308.148 25.1287 309.36 26.5182L309.354 26.5313Z" fill="white"/>
<path d="M331.088 31.7091C329.62 31.0144 328.466 30.0444 327.621 28.7991C326.775 27.5538 326.323 26.1512 326.264 24.5782H331.016C331.075 25.6465 331.586 26.5772 332.549 27.3768C333.513 28.1764 334.706 28.5762 336.128 28.5762C337.399 28.5762 338.428 28.3075 339.215 27.7766C340.001 27.2457 340.395 26.5772 340.395 25.7776C340.395 25.037 340.152 24.4537 339.661 24.0211C339.169 23.5885 338.468 23.2739 337.55 23.0642L333.729 22.1728C331.776 21.7271 330.209 20.993 329.043 19.9706C327.87 18.9481 327.286 17.4472 327.286 15.4613C327.286 14.2488 327.634 13.1477 328.328 12.1711C329.023 11.1946 330.006 10.4146 331.284 9.83785C332.556 9.26108 334.024 8.97269 335.682 8.97269C337.34 8.97269 338.782 9.26108 340.106 9.83785C341.424 10.4146 342.505 11.247 343.351 12.3284C344.196 13.4099 344.707 14.6748 344.884 16.1299H340.132C340.015 15.1533 339.53 14.3733 338.691 13.7966C337.845 13.2198 336.849 12.9314 335.689 12.9314C334.62 12.9314 333.762 13.1608 333.113 13.6196C332.458 14.0784 332.136 14.6945 332.136 15.4613C332.136 16.0512 332.372 16.5624 332.844 16.995C333.316 17.4276 333.985 17.7291 334.843 17.906L338.664 18.7515C340.794 19.2234 342.44 19.9575 343.6 20.9537C344.753 21.95 345.33 23.5099 345.33 25.64C345.33 26.9705 344.943 28.183 344.176 29.2644C343.403 30.3459 342.322 31.1979 340.932 31.8205C339.543 32.4432 337.937 32.7512 336.134 32.7512C334.24 32.7512 332.556 32.4039 331.088 31.7091Z" fill="white"/>
<path d="M347.88 9.33311H352.723V32.3972H347.88V9.33311Z" fill="white"/>
<path d="M361.656 40.1509C360.083 39.5413 358.831 38.6303 357.901 37.4178C356.97 36.2053 356.38 34.7371 356.144 33.0199H361.034C361.211 34.2914 361.827 35.2942 362.875 36.0217C363.924 36.7493 365.359 37.1097 367.162 37.1097C369.089 37.1097 370.583 36.6116 371.651 35.6219C372.72 34.6323 373.251 33.2297 373.251 31.4207V28.3992C372.687 29.2578 371.789 29.9526 370.563 30.49C369.331 31.0209 367.961 31.2896 366.454 31.2896C364.232 31.2896 362.305 30.8243 360.68 29.887C359.048 28.9563 357.796 27.6455 356.924 25.9545C356.052 24.2636 355.613 22.3432 355.613 20.1803C355.613 18.0174 356.052 16.0119 356.924 14.334C357.796 12.6627 359.041 11.3518 360.653 10.4015C362.266 9.45113 364.153 8.97923 366.316 8.97923C367.765 8.97923 369.115 9.26761 370.36 9.84438C371.605 10.4211 372.569 11.188 373.251 12.1318V9.33315H378.094V30.975C378.094 33.0462 377.648 34.8486 376.764 36.3757C375.872 37.9028 374.614 39.0629 372.988 39.8625C371.356 40.6621 369.416 41.0619 367.168 41.0619C365.064 41.0619 363.229 40.7604 361.656 40.1509ZM370.498 26.2429C371.474 25.6662 372.228 24.8534 372.766 23.7982C373.296 22.7495 373.565 21.537 373.565 20.1738C373.565 18.0699 372.982 16.3789 371.809 15.1074C370.635 13.8359 369.062 13.1936 367.077 13.1936C365.772 13.1936 364.632 13.4754 363.655 14.0391C362.679 14.6027 361.925 15.4154 361.388 16.4838C360.85 17.5521 360.588 18.7777 360.588 20.1738C360.588 22.2776 361.171 23.9621 362.344 25.2205C363.518 26.4789 365.091 27.1081 367.077 27.1081C368.381 27.1081 369.521 26.8197 370.498 26.2429Z" fill="white"/>
<path d="M382.197 9.33315H387.041V13.246C387.866 11.9155 388.941 10.8668 390.265 10.1131C391.583 9.35937 393.057 8.97923 394.689 8.97923C396.321 8.97923 397.757 9.32005 399.002 10.0017C400.247 10.6833 401.224 11.6468 401.938 12.8921C402.646 14.1374 403.007 15.5727 403.007 17.2047V32.4038H398.163V18.273C398.163 16.7918 397.73 15.5989 396.872 14.6945C396.013 13.79 394.86 13.3378 393.405 13.3378C392.1 13.3378 390.973 13.6917 390.029 14.4061C389.079 15.1139 388.345 16.1364 387.827 17.4734C387.309 18.8105 387.047 20.4032 387.047 22.2711V32.4038H382.204V9.33315H382.197Z" fill="white"/>
<path d="M116.203 3.7162C116.203 2.14522 114.931 0.871685 113.362 0.871685C111.792 0.871685 110.52 2.14522 110.52 3.7162V3.75552C110.52 5.3265 111.792 6.60003 113.362 6.60003C114.931 6.60003 116.203 5.3265 116.203 3.75552V3.7162Z" fill="white"/>
<path d="M353.143 3.7162C353.143 2.14522 351.871 0.871685 350.301 0.871685C348.732 0.871685 347.46 2.14522 347.46 3.7162V3.75552C347.46 5.3265 348.732 6.60003 350.301 6.60003C351.871 6.60003 353.143 5.3265 353.143 3.75552V3.7162Z" fill="white"/>
<path d="M83.3531 0.525692H96.7768C98.8809 0.525692 100.696 0.904444 102.224 1.65542C103.751 2.40639 104.937 3.4904 105.776 4.90746C106.615 6.32451 107.041 8.00931 107.041 9.95531C107.041 11.1634 106.845 12.2931 106.438 13.3445C106.038 14.3893 105.455 15.3231 104.682 16.1329C103.908 16.9426 102.991 17.5891 101.929 18.0593C103.056 18.5621 103.921 19.2478 104.531 20.1163C105.141 20.9848 105.606 22.1472 105.934 23.5904L107.002 28.7688C107.028 28.8864 107.048 29.0039 107.048 29.1215C107.199 29.8006 107.369 30.421 107.559 30.9826C107.749 31.5442 107.979 32.0274 108.247 32.4453H102.696C102.46 32.0927 102.263 31.6878 102.119 31.2307C101.968 30.7736 101.85 30.2969 101.765 29.7941L100.873 24.6613C100.638 23.3945 100.238 22.3758 99.674 21.6052C99.1103 20.8412 98.3106 20.273 97.275 19.9008C96.2394 19.5351 94.9022 19.3457 93.2767 19.3457H88.5246V32.4519H83.3531V0.525692ZM99.1496 14.2326C99.9952 13.8669 100.638 13.3118 101.083 12.5739C101.529 11.836 101.752 10.9675 101.752 9.96184C101.752 8.42724 101.254 7.23221 100.264 6.37676C99.2741 5.5213 97.8846 5.0903 96.1083 5.0903H88.505V14.7877H96.1017C97.2881 14.7877 98.3041 14.6048 99.1431 14.2326H99.1496Z" fill="white"/>
</g>
<defs>
<clipPath id="clip0_16_4">
<rect width="319.647" height="41.0619" fill="white" transform="translate(83.353 3.8147e-06)"/>
</clipPath>
</defs>
</svg>
